PathFileType	4	(X/Y/Z)	Kaydara																																																																																																																									
DataRate	CameraRate	NumFrames	NumMarkers	Units	OrigDataRate	OrigDataStartFrame	OrigNumFrames																																																																																																																					
30	30	4	41	mm	30	68	179																																																																																																																					
Frame#	Time	EMLA_LFHD			EMLA_RFHD			EMLA_LBHD			EMLA_RBHD			EMLA_LFTShould			EMLA_RFTShould			EMLA_LRRShould			EMLA_RRRShould			EMLA_T10			EMLA_STRN			EMLA_TRUN			EMLA_LSHO			EMLA_LUPA			EMLA_LELB			EMLA_LFRM			EMLA_LWRA			EMLA_LWRB			EMLA_LFIN			EMLA_RSHO			EMLA_RUPA			EMLA_RELB			EMLA_RFRM			EMLA_RWRA			EMLA_RWRB			EMLA_RFIN			EMLA_LFWT			EMLA_RFWT			EMLA_LBWT			EMLA_RBWT			EMLA_LTHI			EMLA_LKNE			EMLA_LSHN			EMLA_LANK			EMLA_LHEE			EMLA_LTOE			EMLA_RTHI			EMLA_RKNE			EMLA_RSHN			EMLA_RANK			EMLA_RHEE			EMLA_RTOE		
		X1	Y1	Z1	X2	Y2	Z2	X3	Y3	Z3	X4	Y4	Z4	X5	Y5	Z5	X6	Y6	Z6	X7	Y7	Z7	X8	Y8	Z8	X9	Y9	Z9	X10	Y10	Z10	X11	Y11	Z11	X12	Y12	Z12	X13	Y13	Z13	X14	Y14	Z14	X15	Y15	Z15	X16	Y16	Z16	X17	Y17	Z17	X18	Y18	Z18	X19	Y19	Z19	X20	Y20	Z20	X21	Y21	Z21	X22	Y22	Z22	X23	Y23	Z23	X24	Y24	Z24	X25	Y25	Z25	X26	Y26	Z26	X27	Y27	Z27	X28	Y28	Z28	X29	Y29	Z29	X30	Y30	Z30	X31	Y31	Z31	X32	Y32	Z32	X33	Y33	Z33	X34	Y34	Z34	X35	Y35	Z35	X36	Y36	Z36	X37	Y37	Z37	X38	Y38	Z38	X39	Y39	Z39	X40	Y40	Z40	X41	Y41	Z41
																																																																																																																												
68	2.243	263.47567	1633.86749	-1859.69757	93.96791	1632.4649	-1865.26001	282.05786	1627.56378	-2010.29068	87.45559	1629.12933	-2018.42239	267.62037	1408.53592	-1919.44366	117.89329	1395.88135	-1921.88507	262.83691	1452.33627	-2068.64243	106.22241	1441.86325	-2069.6669	199.81125	1275.60303	-2112.77451	191.27901	1337.29584	-1882.48596	187.29616	1234.25262	-1860.97717	391.61007	1428.27393	-1969.07974	445.70168	1245.07957	-1981.61667	459.55193	1099.67049	-1983.7262	456.44474	962.7626	-1977.90726	369.06288	821.92802	-1898.28781	428.11996	799.88434	-1955.29739	418.66844	768.04031	-1893.49915	-2.96822	1423.94897	-1988.92014	-57.39317	1229.86626	-1986.51382	-74.16539	1083.91098	-2001.35315	-74.42018	983.24097	-2002.98157	-9.09268	828.09395	-1891.14914	-56.50408	806.57463	-1958.8031	-66.82657	778.0275	-1900.69183	291.13737	988.29475	-1888.44559	56.35303	980.21881	-1913.68851	277.62323	1014.44534	-2087.81662	102.54138	1016.9178	-2090.68207	324.60007	721.22887	-2071.19431	318.76549	519.82426	-2026.91788	285.15799	336.95602	-2022.78473	288.34229	163.37635	-2104.93652	224.45873	84.89165	-2172.40143	246.94546	75.00007	-1973.12927	66.24045	712.51945	-2099.84161	33.72444	512.68917	-2029.35333	81.44867	289.06649	-2032.76184	46.02514	131.63651	-2121.70578	103.69908	76.99788	-2175.55206	68.62615	71.20351	-1975.02396
69	2.277	267.65306	1631.22772	-1848.68805	98.07528	1630.20676	-1854.97437	286.70704	1627.0607	-1999.3425	92.22968	1629.00528	-2007.93686	273.61767	1408.0603	-1910.47012	122.48	1394.27475	-1914.76563	268.26843	1452.83569	-2059.44336	111.47251	1442.77634	-2061.90994	205.40129	1276.88919	-2106.65451	195.52877	1335.03479	-1875.67001	190.79281	1231.67595	-1855.681	396.18183	1427.12402	-1958.98163	449.92939	1243.9109	-1972.90939	463.13923	1098.32535	-1976.37207	459.70387	961.60797	-1972.60651	370.85907	819.8558	-1895.84473	430.6234	798.36037	-1952.47574	420.14275	765.52773	-1891.29761	1.85154	1423.81332	-1982.06192	-53.19142	1230.36804	-1982.4437	-70.62222	1084.47723	-1999.16016	-71.21589	983.78334	-2002.09961	-8.67271	827.28706	-1890.46585	-54.76546	806.30013	-1959.12399	-66.36721	777.52869	-1901.58646	294.95829	987.40593	-1885.39749	60.1664	980.14648	-1911.7836	282.13844	1014.15802	-2085.04883	106.9421	1016.73042	-2088.69324	327.26967	720.8445	-2069.30908	321.28922	519.11591	-2025.25009	286.44747	336.33846	-2021.68777	289.4277	162.83333	-2104.46136	225.31418	84.9288	-2172.8392	246.85942	75.13454	-1973.57574	69.30514	709.30565	-2092.32864	33.98636	511.16589	-2014.80179	81.43279	286.59597	-2024.61136	46.26473	132.42112	-2119.2778	104.47171	78.63072	-2174.65439	68.21284	71.15155	-1974.71466
70	2.31	272.13995	1627.5296	-1836.77551	102.59791	1626.76117	-1843.62213	291.65827	1626.23993	-1987.44537	97.14333	1628.45551	-1996.76163	273.80733	1403.57803	-1903.38074	126.42304	1392.35962	-1907.1994	273.84399	1452.69897	-2049.73709	117.26804	1443.01987	-2053.80081	211.22623	1277.58278	-2100.09689	198.98745	1332.21985	-1868.41171	194.42572	1228.65921	-1849.84467	400.76668	1425.51666	-1948.20038	454.29531	1242.34787	-1963.0658	466.847	1096.56601	-1967.52228	462.78679	959.88678	-1965.31708	372.5111	817.70988	-1891.05743	432.75097	796.60858	-1947.13867	421.18343	762.98782	-1886.74149	7.03533	1423.30276	-1974.99863	-49.0178	1230.81886	-1978.10883	-66.90064	1084.90738	-1996.66031	-68.09607	984.22592	-2001.35162	-8.80934	825.71747	-1890.78629	-53.49449	805.83214	-1960.50797	-66.50511	776.6301	-1903.56079	298.69297	986.15479	-1882.0842	63.99624	979.31801	-1909.65317	286.64759	1013.7841	-2081.97952	111.1342	1015.38742	-2086.40106	330.52341	720.35118	-2066.83105	324.09817	518.17711	-2023.11005	287.84678	335.48328	-2020.46295	290.60907	162.17506	-2104.00299	226.37661	84.86094	-2173.4697	246.56836	75.26679	-1974.23004	69.99349	704.03015	-2080.70404	33.13938	508.94947	-1995.19135	80.48816	284.34345	-2013.93341	46.15115	134.62667	-2115.90988	105.43983	82.3221	-2172.86575	67.5104	71.08169	-1974.00589
71	2.343	276.58091	1623.06641	-1824.07806	106.93108	1622.76016	-1831.73264	296.72049	1625.26733	-1974.75739	102.26095	1628.01971	-1984.56329	278.02797	1400.72098	-1893.95706	130.83644	1390.07477	-1899.33594	279.6526	1452.17346	-2039.63867	122.74109	1443.00323	-2045.51407	216.85892	1277.86507	-2093.06976	203.09891	1329.0155	-1860.89096	197.9344	1225.25261	-1843.93631	405.37727	1423.15887	-1937.11441	458.82061	1240.09285	-1952.1228	470.55099	1093.93501	-1957.59308	465.41214	957.02423	-1955.67902	373.32893	815.43793	-1882.83371	434.24625	794.38354	-1938.4787	421.56055	760.22194	-1878.59253	12.05796	1422.37854	-1967.55203	-44.81611	1230.55046	-1973.89374	-63.43271	1084.96567	-1994.45343	-65.44006	984.4796	-2000.95581	-9.2539	823.601	-1892.173	-52.7566	804.99214	-1962.94159	-67.128	775.15533	-1906.59454	302.67246	984.45831	-1878.82004	68.24773	978.46138	-1906.65024	290.59574	1013.1723	-2078.8533	114.61782	1012.95372	-2083.84232	334.48185	719.8304	-2064.01627	326.98105	517.26971	-2020.91064	289.43138	334.66057	-2019.17953	291.69865	161.57467	-2103.44742	227.18321	84.92428	-2173.80569	246.40636	75.22995	-1974.44382	69.24281	698.52417	-2066.17828	32.56177	508.24486	-1969.86557	79.40206	284.51	-2000.13443	46.4567	140.92259	-2110.89859	106.88412	91.14482	-2169.96429	66.98938	70.94819	-1972.99973
